PathFileType	4	(X/Y/Z)	/Users/itak/Documents/Research/Walk-IL/dataset/trc/00064_00006.trc
DataRate	CameraRate	NumFrames	NumMarkers	Units	OrigDataRate	OrigDataStartFrame	OrigNumFrames
100.000000	100.000000	4	53	mm	100.000000	573	764
Frame#	Time	RPSI			LPSI			L3			STRN			T10			C7			CLAV			RBAK			LBAK			LSHO			LUPA			LAEL			LAOL			LWTS			LWPS			LFRA			LIFD			LHPS			LHTS			RSHO			RUPA			RAEL			RAOL			RWTS			RWPS			RFRA			RIFD			RHTS			RHPS			RBHD			LFHD			RFHD			LBHD			LHIP			RHIP			RASI			LASI			LKNE			LTHI			LANK			LTIP			LTOE			LMT1			LMT5			LHEE			RKNE			RTHI			RANK			RTIP			RTOE			RMT1			RMT5			RHEE			
		X1	Y1	Z1	X2	Y2	Z2	X3	Y3	Z3	X4	Y4	Z4	X5	Y5	Z5	X6	Y6	Z6	X7	Y7	Z7	X8	Y8	Z8	X9	Y9	Z9	X10	Y10	Z10	X11	Y11	Z11	X12	Y12	Z12	X13	Y13	Z13	X14	Y14	Z14	X15	Y15	Z15	X16	Y16	Z16	X17	Y17	Z17	X18	Y18	Z18	X19	Y19	Z19	X20	Y20	Z20	X21	Y21	Z21	X22	Y22	Z22	X23	Y23	Z23	X24	Y24	Z24	X25	Y25	Z25	X26	Y26	Z26	X27	Y27	Z27	X28	Y28	Z28	X29	Y29	Z29	X30	Y30	Z30	X31	Y31	Z31	X32	Y32	Z32	X33	Y33	Z33	X34	Y34	Z34	X35	Y35	Z35	X36	Y36	Z36	X37	Y37	Z37	X38	Y38	Z38	X39	Y39	Z39	X40	Y40	Z40	X41	Y41	Z41	X42	Y42	Z42	X43	Y43	Z43	X44	Y44	Z44	X45	Y45	Z45	X46	Y46	Z46	X47	Y47	Z47	X48	Y48	Z48	X49	Y49	Z49	X50	Y50	Z50	X51	Y51	Z51	X52	Y52	Z52	X53	Y53	Z53	

574	5.73	-685.3238525390625	1009.56396484375	23.57784461975098	-512.1264038085938	988.3314819335938	43.49634170532227	-596.6698608398438	1051.907470703125	37.54688262939453	-638.5054931640625	1257.238647460938	288.9011840820312	-588.1723022460938	1185.820678710938	20.86605453491211	-594.0767211914062	1453.4912109375	77.53970336914062	-628.5560913085938	1371.114379882812	256.8700561523438	-657.1592407226562	1315.0146484375	4.632951736450195	-492.1807861328125	1415.769165039062	73.75343322753906	-438.3078002929688	1422.546875	187.0061950683594	-356.4240417480469	1299.200439453125	179.8310699462891	-329.6054382324219	1085.717407226562	195.1515197753906	-409.1465148925781	1069.179321289062	125.6484603881836	-395.5112609863281	847.324951171875	285.6429443359375	-331.8530578613281	836.1264038085938	231.9846343994141	-321.2479858398438	976.894775390625	216.9935455322266	-418.7057495117188	662.5725708007812	293.7691650390625	-339.8018493652344	754.2603149414062	264.0424499511719	-394.9185485839844	764.2508544921875	307.4058837890625	-776.6835327148438	1421.57373046875	108.2752685546875	-837.31982421875	1355.965454101562	84.01448059082031	-893.4121704101562	1100.70263671875	43.68271255493164	-797.1949462890625	1076.239013671875	73.23948669433594	-901.2395629882812	867.7811279296875	222.6602325439453	-935.8900146484375	844.7614135742188	145.3299407958984	-913.1116333007812	1019.076171875	61.35345840454102	-884.5349731445312	676.499267578125	243.5682525634766	-906.3242797851562	763.7689208984375	251.9712829589844	-943.8740844726562	757.7752685546875	185.0749664306641	-582.819091796875	1631.606201171875	94.68582916259766	-650.3395385742188	1671.213256835938	296.4366149902344	-529.0347290039062	1669.510864257812	260.7805480957031	-713.167724609375	1627.154541015625	142.0138092041016	-449.3040771484375	924.345947265625	165.0179595947266	-777.0498657226562	940.9285888671875	65.39626312255859	-783.9741821289062	951.4797973632812	192.4248809814453	-526.5386352539062	938.0020141601562	261.6258239746094	-598.2860107421875	510.2561950683594	361.5145263671875	-523.4202880859375	622.7511596679688	295.0127868652344	-644.611328125	47.86786651611328	337.7063903808594	-611.427490234375	256.7816467285156	355.0569458007812	-685.3201904296875	48.17694473266602	540.0850219726562	-727.0780029296875	43.4488410949707	483.5627136230469	-622.22509765625	48.04401397705078	444.3238525390625	-714.1153564453125	45.09944915771484	276.1664733886719	-799.0629272460938	495.4436645507812	81.54082489013672	-806.021728515625	763.7672119140625	123.5254898071289	-706.4796752929688	160.5169372558594	-285.1796875	-789.7838745117188	401.8815002441406	-7.146875381469727	-718.5899658203125	36.89731597900391	-135.7973022460938	-674.0040893554688	69.6795654296875	-151.9186401367188	-746.59375	65.40131378173828	-218.4446258544922	-647.1725463867188	202.7075347900391	-282.8653564453125	
575	5.74	-686.874267578125	1009.599487304688	34.34803009033203	-513.416015625	988.9728393554688	52.08138656616211	-597.9786987304688	1052.801635742188	47.15552139282227	-636.672607421875	1258.097778320312	299.1286010742188	-589.5037231445312	1186.617553710938	30.8684196472168	-594.5465698242188	1454.3134765625	87.35286712646484	-627.093505859375	1371.949829101562	266.9864501953125	-658.5286865234375	1315.889282226562	15.12178707122803	-492.6907348632812	1416.533081054688	82.56708526611328	-437.6804504394531	1423.419799804688	195.2972259521484	-356.0010070800781	1300.043823242188	187.6473693847656	-329.2616882324219	1086.515014648438	203.3016204833984	-409.3184509277344	1069.8056640625	134.4600067138672	-395.1716613769531	848.7371215820312	295.3694763183594	-331.86083984375	837.1827392578125	241.3317565917969	-321.0165710449219	977.7996215820312	225.6236114501953	-418.7125854492188	663.9830932617188	304.1532592773438	-339.7845458984375	755.4564819335938	273.755615234375	-394.6903686523438	765.6771240234375	317.3857421875	-776.83349609375	1422.572875976562	120.0894775390625	-837.7283935546875	1356.965942382812	96.44408416748047	-893.4381713867188	1101.811645507812	55.7987060546875	-796.4881591796875	1077.663818359375	84.25394439697266	-899.85546875	867.8656005859375	233.5245971679688	-934.6966552734375	845.2267456054688	156.1544952392578	-912.8320922851562	1020.082702636719	73.17173004150391	-882.41796875	676.49609375	253.0890350341797	-904.4812622070312	763.6166381835938	262.1880798339844	-942.2936401367188	757.949951171875	195.3213348388672	-582.705078125	1632.425170898438	104.3046493530273	-648.5224609375	1672.111450195312	306.5435180664062	-527.5106201171875	1670.385009765625	269.9320373535156	-712.6639404296875	1628.063110351562	152.7579650878906	-448.8126525878906	925.2236328125	172.6853179931641	-778.0194091796875	940.75341796875	77.69834899902344	-783.283935546875	952.2677001953125	204.7475738525391	-524.915283203125	938.9381713867188	270.572021484375	-599.1695556640625	510.3522644042969	368.98876953125	-524.0972290039062	623.4194946289062	303.1073913574219	-644.6688842773438	48.10819625854492	338.3008117675781	-612.0042724609375	256.5946655273438	358.9884948730469	-685.9910278320312	46.54433441162109	540.7507934570312	-727.8060302734375	42.38449096679688	484.0738830566406	-622.7344970703125	47.76991653442383	445.0668640136719	-714.1380004882812	45.4549446105957	276.4795532226562	-804.27783203125	494.8673095703125	101.7116622924805	-807.3429565429688	764.0672607421875	138.7977142333984	-715.73095703125	171.0935211181641	-274.2872314453125	-796.166748046875	402.4493103027344	12.26598930358887	-721.1969604492188	36.65958786010742	-131.6301422119141	-677.8853759765625	73.74330902099609	-146.3724365234375	-751.6990966796875	71.28328704833984	-211.6046600341797	-657.5592041015625	214.5063781738281	-271.3229064941406	
576	5.75	-688.2706909179688	1009.504516601562	44.83683776855469	-514.6071166992188	989.5645141601562	60.47742462158203	-599.1437377929688	1053.734130859375	56.53291702270508	-634.8899536132812	1258.871337890625	309.1056213378906	-590.7883911132812	1187.489624023438	40.68087005615234	-595.0203247070312	1455.190551757812	97.01070404052734	-625.63037109375	1372.722900390625	276.9144287109375	-659.86962890625	1316.818481445312	25.40193748474121	-493.1982727050781	1417.327026367188	91.2237548828125	-437.0750427246094	1424.228393554688	203.4229888916016	-355.5745544433594	1300.821899414062	195.2572174072266	-328.79150390625	1087.256958007812	211.2634429931641	-409.3252868652344	1070.369873046875	143.0377044677734	-394.7391052246094	850.1892700195312	305.0472106933594	-331.8134460449219	838.1886596679688	250.6137084960938	-320.6685180664062	978.6455078125	234.1108856201172	-418.6498718261719	665.4745483398438	314.801025390625	-339.6915588378906	756.6729125976562	283.5165405273438	-394.3867797851562	767.1997680664062	327.4254760742188	-776.9990844726562	1423.521484375	131.7421264648438	-838.1314086914062	1357.898559570312	108.7265396118164	-893.5953979492188	1102.83544921875	67.84840393066406	-796.3043212890625	1078.698486328125	95.37337493896484	-898.4677734375	867.8264770507812	244.1951904296875	-933.5668334960938	845.5870971679688	166.8111724853516	-912.6731567382812	1021.028198242188	84.91480255126953	-880.2820434570312	676.3766479492188	262.3416748046875	-902.619384765625	763.3392944335938	272.1713256835938	-940.7369995117188	758.01171875	205.3745269775391	-582.572998046875	1633.222290039062	113.8529434204102	-646.6565551757812	1673.018676757812	316.5679321289062	-525.9571533203125	1671.2265625	278.9902648925781	-712.1136474609375	1628.985107421875	163.4344940185547	-448.3288879394531	926.03369140625	180.2134552001953	-778.8109741210938	940.4633178710938	89.77627563476562	-782.5577392578125	953.059814453125	216.7881317138672	-523.3349609375	939.8013916015625	279.2798461914062	-599.6848754882812	510.230712890625	375.8998718261719	-524.470458984375	623.8646850585938	310.5680236816406	-644.6989135742188	48.29249572753906	338.6848449707031	-612.3623046875	256.3179321289062	362.4109191894531	-686.3889770507812	45.5507926940918	541.144287109375	-728.3189697265625	41.72328567504883	484.3976745605469	-623.0795288085938	47.55617523193359	445.5877075195312	-714.1879272460938	45.69483947753906	276.6778564453125	-808.9663696289062	494.4324645996094	122.3442001342773	-808.5126342773438	764.4627685546875	154.1153411865234	-725.1386108398438	181.5451049804688	-262.2406311035156	-802.0690307617188	403.0171508789062	32.33285140991211	-724.4822998046875	37.02933502197266	-125.8566055297852	-682.14501953125	78.48080444335938	-139.4281463623047	-757.3461303710938	77.97288513183594	-203.2000274658203	-667.9402465820312	225.9273834228516	-258.9630126953125	
577	5.76	-689.550048828125	1009.36279296875	55.08256149291992	-515.7420654296875	990.1656494140625	68.69457244873047	-600.18896484375	1054.720825195312	65.70994567871094	-633.17041015625	1259.603515625	318.83251953125	-592.022216796875	1188.443237304688	50.27935409545898	-595.4937133789062	1456.130493164062	106.4996032714844	-624.185791015625	1373.474731445312	286.6438293457031	-661.172119140625	1317.805786132812	35.47317123413086	-493.700927734375	1418.166015625	99.71320343017578	-436.4956970214844	1424.99658203125	211.3777160644531	-355.1491088867188	1301.5458984375	202.6607513427734	-328.2206115722656	1087.957885742188	219.0244750976562	-409.2127380371094	1070.887451171875	151.3888549804688	-394.2023315429688	851.6825561523438	314.630615234375	-331.7242126464844	839.1359252929688	259.7616882324219	-320.2161865234375	979.4386596679688	242.4111480712891	-418.5165100097656	667.0801391601562	325.7431030273438	-339.5319213867188	757.905029296875	293.2694702148438	-393.9823303222656	768.8397216796875	337.4973754882812	-777.177490234375	1424.435302734375	143.2014923095703	-838.5127563476562	1358.782104492188	120.8265991210938	-893.8748168945312	1103.788818359375	79.82549285888672	-796.7132568359375	1079.312133789062	106.6735229492188	-897.0696411132812	867.6910400390625	254.6744689941406	-932.5195922851562	845.8707275390625	177.3157196044922	-912.6318969726562	1021.930053710938	96.58440399169922	-878.1552124023438	676.1611938476562	271.3287353515625	-900.7434692382812	762.9634399414062	281.926513671875	-939.2290649414062	757.991943359375	215.2558898925781	-582.4288940429688	1634.038208007812	123.3244934082031	-644.7378540039062	1673.9443359375	326.5136108398438	-524.368896484375	1672.046752929688	287.9511413574219	-711.5104370117188	1629.945922851562	174.0395202636719	-447.8982238769531	926.789306640625	187.5987854003906	-779.455078125	940.1469116210938	101.6574478149414	-781.7958984375	953.8959350585938	228.5731353759766	-521.7996215820312	940.6102294921875	287.7435302734375	-599.7523193359375	509.9046630859375	382.2022399902344	-524.512939453125	624.0850219726562	317.3067016601562	-644.6997680664062	48.42079544067383	338.9041137695312	-612.4680786132812	255.96240234375	365.3291931152344	-686.5634765625	45.01147842407227	541.3516845703125	-728.6439208984375	41.36864852905273	484.5808410644531	-623.2697143554688	47.3569221496582	445.9476013183594	-714.2536010742188	45.85395812988281	276.7933044433594	-813.0548095703125	494.2217102050781	143.3336181640625	-809.5160522460938	765.0154418945312	169.4377593994141	-734.5267333984375	191.5692749023438	-249.0406799316406	-807.39501953125	403.6615295410156	52.91817474365234	-728.455322265625	38.25885772705078	-118.1167678833008	-686.8154907226562	83.80017852783203	-130.8394012451172	-763.5120849609375	85.19670104980469	-192.9969787597656	-678.0999755859375	236.6671600341797	-245.8038635253906	
